<svg xmlns="http://www.w3.org/2000/svg" viewBox="0 0 256 256" role="img" aria-label="Mabaso">
  <defs>
    <linearGradient id="bg" x1="0%" x2="100%" y1="0%" y2="100%">
      <stop offset="0%" stop-color="#04110a" />
      <stop offset="100%" stop-color="#0a0f16" />
    </linearGradient>
    <linearGradient id="metal" x1="0%" x2="100%" y1="0%" y2="100%">
      <stop offset="0%" stop-color="#f8fbff" />
      <stop offset="45%" stop-color="#8f99a8" />
      <stop offset="100%" stop-color="#ffffff" />
    </linearGradient>
    <linearGradient id="green" x1="0%" x2="100%" y1="0%" y2="100%">
      <stop offset="0%" stop-color="#d8ffe4" />
      <stop offset="100%" stop-color="#22c55e" />
    </linearGradient>
    <linearGradient id="purple" x1="0%" x2="100%" y1="0%" y2="100%">
      <stop offset="0%" stop-color="#f1deff" />
      <stop offset="100%" stop-color="#8b5cf6" />
    </linearGradient>
  </defs>

  <rect width="256" height="256" rx="56" fill="url(#bg)" />
  <rect x="94" y="40" width="68" height="106" rx="34" fill="#0e141d" stroke="url(#metal)" stroke-width="6" />
  <rect x="86" y="140" width="84" height="24" rx="10" fill="#0e141d" stroke="url(#metal)" stroke-width="6" />
  <path d="M95 153H76c-12 0-22-10-22-22V90" fill="none" stroke="url(#metal)" stroke-linecap="round" stroke-width="6" />
  <path d="M161 153h19c12 0 22-10 22-22V90" fill="none" stroke="url(#metal)" stroke-linecap="round" stroke-width="6" />
  <path d="M128 164v28" fill="none" stroke="url(#metal)" stroke-linecap="round" stroke-width="8" />
  <path d="M95 192h66" fill="none" stroke="url(#metal)" stroke-linecap="round" stroke-width="8" />
  <rect x="60" y="186" width="136" height="28" rx="12" fill="#121a25" stroke="#4e5a69" stroke-width="4" />
  <rect x="68" y="200" width="54" height="6" rx="3" fill="url(#green)" />
  <rect x="132" y="200" width="54" height="6" rx="3" fill="url(#purple)" />
  <text x="128" y="232" fill="url(#green)" font-family="Arial, Helvetica, sans-serif" font-size="26" font-weight="700" text-anchor="middle">M</text>
</svg>
